<svg width="119" height="20" viewBox="0 0 119 20" fill="none" xmlns="http://www.w3.org/2000/svg">
<path fill-rule="evenodd" clip-rule="evenodd" d="M19.8739 13.3377L19.8742 13.3377C20.2359 18.0902 24.3247 18.6422 24.3247 18.6422V18.8152H19.1039V13.326C18.4827 15.2303 17.157 16.7288 15.1299 17.8281C13.0705 18.9416 10.6475 19.5 7.86085 19.5C5.89322 19.5 4.23824 19.0642 2.8925 18.1993C1.54677 17.331 0.873901 16.0167 0.873901 14.2597C0.873901 11.0011 3.32069 9.37007 8.21427 9.37007H19.0311C18.4704 4.98441 15.694 2.79158 10.7086 2.79158C6.37578 2.79158 3.55518 4.23531 2.24682 7.11936L1.93078 6.83674C2.58665 4.74946 3.7047 3.17294 5.28492 2.10376C6.86174 1.03459 8.75121 0.5 10.9533 0.5C13.8079 0.5 16.01 1.33763 17.5563 3.01631C19.1025 4.69498 19.8739 7.13979 19.8739 10.3541V13.3377ZM19.1331 13.2554V13.2348L19.1268 13.2547L19.1331 13.2554ZM15.942 15.5434C13.8113 16.6602 11.1436 17.2152 7.93561 17.2152L7.93221 17.2186C6.92631 17.2186 6.01216 17.1233 5.19317 16.936C4.37417 16.7487 3.64013 16.3674 2.99785 15.7919C2.35557 15.2165 2.03273 14.4844 2.03273 13.5923C2.03273 11.1986 4.07852 10.0034 8.17689 10.0034H19.1025C19.1229 10.2384 19.1365 10.5891 19.1365 11.059C19.1365 12.9351 18.0728 14.4299 15.942 15.5434ZM39.1829 0.5C40.7071 0.5 42.4287 0.759066 44.3511 1.27379V6.98007H44.0687C44.0687 5.45294 43.4869 4.29737 42.3267 3.50994C41.1665 2.72252 39.7409 2.33051 38.0533 2.33051C34.4196 2.33051 31.7964 4.36214 30.1769 8.42539V13.6374C30.4355 16.4803 31.9121 18.1472 34.6067 18.6381V18.8153H25.0087V18.6381C27.9858 18.0995 29.4726 16.1599 29.4726 12.8261V7.19141C29.4726 3.85764 27.9858 1.92146 25.0087 1.37946V1.20221H30.1769V6.80622H30.2824C31.0785 4.59734 32.1877 2.99522 33.6064 1.99645C35.0252 0.99768 36.8829 0.5 39.1795 0.5H39.1829ZM68.8192 1.19152V12.8089C68.8192 16.1409 70.3047 18.0794 73.2793 18.6176V18.7948H68.1155V13.1973H67.9047C66.0791 17.398 62.9992 19.5 58.6648 19.5C55.8058 19.5 53.6403 18.6688 52.1649 16.9994C50.6895 15.3334 49.9518 12.8805 49.9518 9.64055V7.17739C49.9518 5.43989 49.5133 4.09758 48.6362 3.14706C47.7591 2.19655 46.5557 1.60375 45.0361 1.36868V1.19152H50.6929V8.93533C50.6929 14.451 53.3513 17.2072 58.6682 17.2072C63.1419 17.2072 66.2899 15.3198 68.1189 11.5382V6.39722C67.9795 4.91863 67.4797 3.77052 66.6265 2.94606C65.7698 2.125 64.6411 1.59694 63.2371 1.36187V1.18471H68.8226L68.8192 1.19152ZM73.9641 17.2493C76.4266 18.7509 79.526 19.5 83.2555 19.5C86.4946 19.5 89.0933 18.9927 91.0517 17.9712C93.0102 16.9531 93.9911 15.54 93.9911 13.7319C93.9911 13.0747 93.8514 12.5129 93.5687 12.043C93.286 11.5731 92.9114 11.1918 92.4414 10.8989C91.9714 10.6061 91.2936 10.3609 90.4012 10.16C89.5088 9.96255 88.6063 9.80932 87.6901 9.70377C86.7739 9.59821 85.5784 9.48925 84.1002 9.37007C80.8134 9.13513 78.5314 8.78782 77.2542 8.33154C75.977 7.87527 75.3367 7.10574 75.3367 6.02635C75.3367 3.63262 78.0342 2.43746 83.4326 2.43746C88.2657 2.43746 91.4434 3.50323 92.9693 5.63817H93.1464V2.4C90.6567 1.13333 87.5368 0.5 83.7834 0.5C80.7078 0.5 78.3305 0.932437 76.6548 1.80072C74.9756 2.669 74.1377 3.9595 74.1377 5.67222C74.1377 6.72778 74.5192 7.56882 75.2822 8.18853C76.0451 8.81165 77.0941 9.25771 78.4327 9.5267C79.7712 9.7957 81.624 10.0034 83.9946 10.143C87.3018 10.3541 89.5906 10.6878 90.8576 11.1441C92.1246 11.6004 92.7581 12.4176 92.7581 13.5889C92.7581 16.2414 89.7915 17.566 83.8549 17.566C79.0457 17.566 75.8067 16.5002 74.1412 14.3652H73.9641V17.2493ZM118.126 18.6422C118.126 18.6422 114.04 18.0905 113.676 13.3418V10.3541C113.676 7.13979 112.905 4.69498 111.358 3.01631C109.812 1.33763 107.61 0.5 104.755 0.5C102.553 0.5 100.664 1.03459 99.0869 2.10376C97.5067 3.17294 96.3887 4.74946 95.7328 6.83674L96.0488 7.11936C97.3572 4.23531 100.178 2.79158 104.511 2.79158C109.496 2.79158 112.272 4.98441 112.833 9.37007H102.016C97.1227 9.37007 94.6759 11.0011 94.6759 14.2597C94.6759 16.0167 95.3488 17.331 96.6945 18.1993C98.0403 19.0642 99.6952 19.5 101.663 19.5C104.449 19.5 106.872 18.9416 108.932 17.8281C110.958 16.7292 112.284 15.2313 112.905 13.3279V18.8152H118.126V18.6422ZM112.935 13.2348V13.2554L112.929 13.2547L112.935 13.2348ZM101.738 17.2152C104.946 17.2152 107.613 16.6602 109.744 15.5434C111.875 14.4299 112.938 12.9351 112.938 11.059C112.938 10.5891 112.925 10.2384 112.905 10.0034H101.979C97.8805 10.0034 95.8348 11.1986 95.8348 13.5923C95.8348 14.4844 96.1576 15.2165 96.7999 15.7919C97.4422 16.3674 98.1762 16.7487 98.9952 16.936C99.8142 17.1233 100.728 17.2186 101.734 17.2186L101.738 17.2152Z" fill="#FCFDFD"/>
</svg>
